<svg width="26" height="31" viewBox="0 0 26 31" fill="none" xmlns="http://www.w3.org/2000/svg">
<path d="M1.97885 21.2964C0.890462 21.2964 0 20.3146 0 19.1146V11.4782C0 10.2782 0.890462 9.29639 1.97885 9.29639C3.06725 9.29639 3.95771 10.2782 3.95771 11.4782V19.1146C3.95771 20.3146 3.06725 21.2964 1.97885 21.2964Z" fill="white"/>
<path d="M24.0213 21.2964C22.9329 21.2964 22.0425 20.3146 22.0425 19.1146V11.4782C22.0425 10.2782 22.9329 9.29639 24.0213 9.29639C25.1097 9.29639 26.0002 10.2782 26.0002 11.4782V19.1146C26.0002 20.3146 25.1097 21.2964 24.0213 21.2964Z" fill="white"/>
<path d="M18.9055 23.9464V29.3723C18.9055 30.2947 18.2077 31.0001 17.295 31.0001C16.3823 31.0001 15.6844 30.2947 15.6844 29.3723V23.9464H10.3158V29.3723C10.3158 30.2947 9.56425 31.0001 8.70527 31.0001C7.84628 31.0001 7.09469 30.2947 7.09469 29.3723V23.9464H4.94727V9.29639H21.0529V23.9464H18.9055Z" fill="white"/>
<path d="M20.7195 7.99951H4.88867C5.09974 5.84953 7.31609 1.99951 12.8568 1.99951C18.1338 1.99951 20.5084 5.84953 20.7195 7.99951Z" fill="white"/>
<path d="M11.221 5.49951C11.221 4.9495 10.7461 4.49951 10.1656 4.49951C9.58516 4.49951 9.11025 4.9495 9.11025 5.49951C9.11025 6.04953 9.58516 6.49951 10.1656 6.49951C10.7461 6.49951 11.221 6.04953 11.221 5.49951Z" fill="#1B171F"/>
<path d="M16.4979 5.49951C16.4979 4.9495 16.023 4.49951 15.4425 4.49951C14.8621 4.49951 14.3872 4.9495 14.3872 5.49951C14.3872 6.04953 14.8621 6.49951 15.4425 6.49951C16.023 6.49951 16.4979 6.04953 16.4979 5.49951Z" fill="#1B171F"/>
<path d="M8.40308 3.99951C8.19767 3.99951 8.04357 3.86563 7.94089 3.59793L6.96515 0.920842C6.86242 0.586206 6.96515 0.184627 7.22193 0.0508184C7.4787 -0.083067 7.78685 0.0508184 7.88952 0.385455L8.86527 3.06255C8.968 3.39718 8.86527 3.79876 8.60849 3.93257C8.55718 3.93257 8.50581 3.99951 8.40308 3.99951Z" fill="white"/>
<path d="M16.7887 3.29951C16.7373 3.29951 16.6346 3.29951 16.5833 3.24428C16.3265 3.13383 16.2237 2.80259 16.3265 2.52651L17.3022 0.317915C17.405 0.0418397 17.713 -0.0686157 17.9698 0.0418397C18.2266 0.152295 18.3293 0.483534 18.2266 0.759609L17.2509 2.96821C17.1995 3.18906 16.9941 3.29951 16.7887 3.29951Z" fill="white"/>
</svg>
