<svg width="37" height="38" viewBox="0 0 37 38" fill="none" xmlns="http://www.w3.org/2000/svg">
<path opacity="0.1" fill-rule="evenodd" clip-rule="evenodd" d="M18.5 36.5C28.165 36.5 36 28.665 36 19C36 9.33502 28.165 1.5 18.5 1.5C8.83502 1.5 1 9.33502 1 19C1 28.665 8.83502 36.5 18.5 36.5Z" stroke="white" stroke-width="1.5"/>
<path d="M27.7255 20.6943C27.7255 21.7852 27.7473 22.8769 27.72 23.9672C27.6877 25.2584 27.0748 26.193 25.8898 26.7321C25.531 26.8953 25.1493 26.9652 24.7543 26.9652C23.018 26.9652 21.2816 26.9652 19.5453 26.9705C19.4436 26.9708 19.3445 27.0012 19.2601 27.0577C18.65 27.4672 18.046 27.8862 17.439 28.3007C17.1446 28.5018 16.8607 28.7227 16.5498 28.894C16.0147 29.1891 15.3498 28.8389 15.2584 28.2742C15.1868 27.8313 15.1472 27.3831 15.0907 26.9376C15.0227 26.4003 14.9489 25.8635 14.8829 25.3256C14.8302 24.8977 14.7859 24.469 14.7372 24.0408C14.6957 23.677 14.65 23.3134 14.6121 22.9491C14.5959 22.7925 14.5015 22.7647 14.3658 22.7493C13.7856 22.6841 13.2028 22.6312 12.6281 22.5312C11.8776 22.4003 11.2943 21.9835 10.8455 21.3732C10.4497 20.8344 10.27 20.2252 10.2692 19.5625C10.2664 17.3852 10.2647 15.2079 10.2703 13.0303C10.2722 12.2088 10.5681 11.492 11.1453 10.9118C11.7033 10.351 12.3883 10.0418 13.1894 10.0398C14.9166 10.0354 16.6434 10.0379 18.3706 10.0412C18.5358 10.0415 18.6703 9.99637 18.8077 9.90026C19.4871 9.42474 20.1729 8.95869 20.8588 8.49236C21.0727 8.34695 21.2786 8.17674 21.5131 8.07646C22.0538 7.8458 22.6536 8.19346 22.7319 8.7194C22.8007 9.18155 22.8472 9.64704 22.9051 10.1109C23.0166 11.0026 23.1305 11.8943 23.2405 12.7863C23.2882 13.1726 23.3283 13.5598 23.372 13.9468C23.4038 14.227 23.4077 14.2173 23.6787 14.2496C24.2632 14.3189 24.8518 14.3719 25.4282 14.4855C26.2162 14.641 26.8129 15.1034 27.2495 15.7728C27.5868 16.2901 27.7258 16.8648 27.7258 17.4771C27.7261 18.5496 27.7258 19.6221 27.7258 20.6943H27.7255ZM24.0133 22.8098C24.2353 22.4593 24.3103 22.0376 24.2501 21.627C24.2467 21.605 24.244 21.5832 24.2412 21.5612C24.1804 21.0601 24.1219 20.5587 24.0632 20.0572C23.9609 19.187 23.8598 18.3167 23.7562 17.4467C23.6826 16.8297 23.6035 16.2135 23.5305 15.5965C23.484 15.2051 23.4431 14.8134 23.4018 14.4215C23.3915 14.3228 23.3584 14.2565 23.2453 14.2471C23.0932 14.2343 22.9419 14.2114 22.7901 14.1933C22.1873 14.1214 21.5844 14.0485 20.9813 13.9785C20.5345 13.9267 20.0871 13.8813 19.6403 13.8289C19.0837 13.7635 18.528 13.6916 17.9714 13.6264C17.3131 13.5495 16.6549 13.4713 15.9955 13.4052C15.7437 13.3802 15.4857 13.3598 15.2355 13.3849C14.4079 13.4679 13.7268 14.2109 13.7207 15.07C13.7182 15.3962 13.7834 15.7232 13.8204 16.0497C13.8803 16.579 13.9413 17.1083 14.004 17.637C14.0809 18.2861 14.1603 18.9346 14.2383 19.5834C14.3385 20.4166 14.4385 21.2498 14.5391 22.083C14.5597 22.2532 14.584 22.4229 14.6026 22.5931C14.6135 22.6945 14.6539 22.7532 14.7659 22.7569C14.8533 22.7596 14.94 22.7819 15.0274 22.7917C15.4512 22.8393 15.8751 22.8836 16.2988 22.9326C16.9022 23.0026 17.5051 23.0769 18.1082 23.1469C18.504 23.1925 18.9007 23.2313 19.2963 23.2772C19.7654 23.3315 20.2342 23.3906 20.7033 23.4469C21.0897 23.4931 21.4758 23.5399 21.8625 23.5828C22.2711 23.6282 22.6792 23.6987 23.0857 23.5525C23.4759 23.4118 23.7996 23.1477 24.0136 22.8101L24.0133 22.8098Z" fill="#A3A3A4"/>
</svg>
