<svg width="162" height="73" viewBox="0 0 162 73" fill="none" xmlns="http://www.w3.org/2000/svg">
<path d="M31.424 71V59.576H0.8V48.776L22.928 1.88H36.128L14 48.776H31.424V30.776H43.136V48.776H49.616V59.576H43.136V71H31.424ZM81.1903 72.44C76.2943 72.44 71.9743 71.4 68.2303 69.32C64.4863 67.208 61.5583 64.28 59.4463 60.536C57.3663 56.792 56.3263 52.472 56.3263 47.576V25.304C56.3263 20.408 57.3663 16.088 59.4463 12.344C61.5583 8.6 64.4863 5.688 68.2303 3.608C71.9743 1.496 76.2943 0.439999 81.1903 0.439999C86.0863 0.439999 90.3903 1.496 94.1023 3.608C97.8463 5.688 100.774 8.6 102.886 12.344C104.998 16.088 106.054 20.408 106.054 25.304V47.576C106.054 52.472 104.998 56.792 102.886 60.536C100.774 64.28 97.8463 67.208 94.1023 69.32C90.3903 71.4 86.0863 72.44 81.1903 72.44ZM81.1903 61.448C83.6223 61.448 85.8303 60.872 87.8143 59.72C89.7983 58.536 91.3663 56.968 92.5183 55.016C93.6703 53.032 94.2463 50.824 94.2463 48.392V24.44C94.2463 21.976 93.6703 19.768 92.5183 17.816C91.3663 15.832 89.7983 14.264 87.8143 13.112C85.8303 11.928 83.6223 11.336 81.1903 11.336C78.7583 11.336 76.5503 11.928 74.5663 13.112C72.5823 14.264 71.0143 15.832 69.8623 17.816C68.7103 19.768 68.1343 21.976 68.1343 24.44V48.392C68.1343 50.824 68.7103 53.032 69.8623 55.016C71.0143 56.968 72.5823 58.536 74.5663 59.72C76.5503 60.872 78.7583 61.448 81.1903 61.448ZM143.418 71V59.576H112.794V48.776L134.922 1.88H148.122L125.994 48.776H143.418V30.776H155.13V48.776H161.61V59.576H155.13V71H143.418Z" fill="url(#paint0_linear_7114_479)"/>
<defs>
<linearGradient id="paint0_linear_7114_479" x1="148.5" y1="71" x2="17.5" y2="20.5" gradientUnits="userSpaceOnUse">
<stop stop-color="#79109D" stop-opacity="0.1"/>
<stop offset="0.566035" stop-color="#79109D"/>
<stop offset="1" stop-color="#79109D" stop-opacity="0.1"/>
</linearGradient>
</defs>
</svg>
