<svg width="156" height="28" viewBox="0 0 156 28" fill="none" xmlns="http://www.w3.org/2000/svg">
<path d="M13.8273 2.91602L10.3123 10.1399L2.32812 11.3056L8.11199 16.999L6.7294 24.916L13.8273 21.1061L20.9267 24.916L19.5543 16.999L25.3281 11.3056L17.3881 10.1399L13.8273 2.91602Z" fill="#FFD700" stroke="#FFD700" stroke-width="2" stroke-linejoin="round"/>
<path d="M45.8273 2.91602L42.3123 10.1399L34.3281 11.3056L40.112 16.999L38.7294 24.916L45.8273 21.1061L52.9267 24.916L51.5543 16.999L57.3281 11.3056L49.3881 10.1399L45.8273 2.91602Z" fill="#FFD700" stroke="#FFD700" stroke-width="2" stroke-linejoin="round"/>
<path d="M77.8273 2.91602L74.3123 10.1399L66.3281 11.3056L72.112 16.999L70.7294 24.916L77.8273 21.1061L84.9267 24.916L83.5543 16.999L89.3281 11.3056L81.3881 10.1399L77.8273 2.91602Z" fill="#595959" stroke="#595959" stroke-width="2" stroke-linejoin="round"/>
<path d="M109.827 2.91602L106.312 10.1399L98.3281 11.3056L104.112 16.999L102.729 24.916L109.827 21.1061L116.927 24.916L115.554 16.999L121.328 11.3056L113.388 10.1399L109.827 2.91602Z" fill="#595959" stroke="#595959" stroke-width="2" stroke-linejoin="round"/>
<path d="M141.827 2.91602L138.312 10.1399L130.328 11.3056L136.112 16.999L134.729 24.916L141.827 21.1061L148.927 24.916L147.554 16.999L153.328 11.3056L145.388 10.1399L141.827 2.91602Z" fill="#595959" stroke="#595959" stroke-width="2" stroke-linejoin="round"/>
</svg>
