<svg width="60" height="60" viewBox="0 0 60 60" fill="none" xmlns="http://www.w3.org/2000/svg">
<g clip-path="url(#clip0_8491_1043)">
<path d="M60 0H0V60H60V0Z" fill="url(#paint0_linear_8491_1043)"/>
<path d="M47.7189 34.4507C47.7189 36.666 47.763 38.883 47.7075 41.0972C47.6419 43.7193 46.3974 45.6172 43.9908 46.7118C43.2622 47.0434 42.4872 47.1853 41.685 47.1853C38.159 47.1853 34.6329 47.1853 31.1069 47.1961C30.9004 47.1967 30.699 47.2583 30.5276 47.3732C29.2887 48.2047 28.0622 49.0556 26.8296 49.8973C26.2316 50.3058 25.6552 50.7544 25.0238 51.1023C23.9371 51.7014 22.5868 50.9903 22.4012 49.8436C22.2558 48.9441 22.1755 48.0339 22.0607 47.1293C21.9226 46.0381 21.7727 44.948 21.6386 43.8556C21.5317 42.9867 21.4418 42.116 21.3428 41.2466C21.2585 40.5077 21.1657 39.7695 21.0888 39.0295C21.056 38.7116 20.8642 38.6551 20.5887 38.6239C19.4103 38.4916 18.2269 38.3841 17.0598 38.181C15.5358 37.9151 14.3512 37.0688 13.4398 35.8293C12.636 34.7353 12.2711 33.4981 12.2694 32.1522C12.2637 27.7307 12.2603 23.3091 12.2717 18.887C12.2756 17.2187 12.8764 15.7632 14.0485 14.5848C15.1817 13.446 16.5727 12.8181 18.1997 12.8141C21.7071 12.8051 25.2139 12.8102 28.7213 12.817C29.0568 12.8175 29.33 12.7259 29.6089 12.5307C30.9886 11.565 32.3814 10.6186 33.7742 9.67162C34.2086 9.37632 34.6267 9.03068 35.103 8.82702C36.2011 8.35862 37.419 9.06462 37.578 10.1327C37.7177 11.0712 37.8122 12.0165 37.9299 12.9584C38.1561 14.7692 38.3875 16.58 38.611 18.3914C38.7077 19.1761 38.7892 19.9624 38.878 20.7482C38.9425 21.3173 38.9504 21.2975 39.5008 21.3631C40.6877 21.5039 41.883 21.6114 43.0535 21.8422C44.6539 22.1579 45.8656 23.097 46.7521 24.4564C47.4371 25.5069 47.7194 26.6739 47.7194 27.9174C47.72 30.0953 47.7194 32.2733 47.7194 34.4507H47.7189ZM40.1802 38.7467C40.6311 38.035 40.7833 37.1786 40.6611 36.3447C40.6543 36.3 40.6487 36.2559 40.643 36.2112C40.5197 35.1935 40.4009 34.1752 40.2815 33.1569C40.0739 31.3897 39.8685 29.6224 39.6581 27.8557C39.5088 26.6027 39.3481 25.3513 39.1999 24.0983C39.1054 23.3035 39.0222 22.5081 38.9385 21.7121C38.9176 21.5119 38.8503 21.3772 38.6206 21.358C38.3117 21.332 38.0045 21.2856 37.6962 21.2488C36.472 21.1029 35.2478 20.9546 34.0231 20.8127C33.1157 20.7074 32.2072 20.6152 31.2998 20.5089C30.1695 20.3759 29.0409 20.23 27.9106 20.0976C26.5739 19.9415 25.2371 19.7825 23.8981 19.6484C23.3867 19.5975 22.8628 19.5562 22.3548 19.6071C20.6741 19.7757 19.291 21.2845 19.2785 23.0291C19.2734 23.6915 19.4058 24.3557 19.481 25.0187C19.6027 26.0935 19.7265 27.1684 19.8538 28.2421C20.01 29.5602 20.1712 30.8771 20.3296 32.1947C20.5332 33.8867 20.7363 35.5787 20.9406 37.2708C20.9824 37.6164 21.0316 37.9609 21.0695 38.3066C21.0916 38.5125 21.1736 38.6319 21.401 38.6392C21.5787 38.6449 21.7546 38.6901 21.9322 38.7099C22.7927 38.8067 23.6537 38.8966 24.5141 38.9962C25.7394 39.1382 26.9636 39.2892 28.1884 39.4312C28.9923 39.524 29.7978 39.6026 30.6011 39.696C31.5538 39.8063 32.5059 39.9262 33.4585 40.0405C34.2432 40.1344 35.0272 40.2294 35.8124 40.3165C36.6423 40.4087 37.4711 40.5519 38.2964 40.2549C39.089 39.9692 39.7464 39.4329 40.1808 38.7473L40.1802 38.7467Z" fill="black"/>
</g>
<defs>
<linearGradient id="paint0_linear_8491_1043" x1="61.2327" y1="-0.656788" x2="-0.414096" y2="59.8535" gradientUnits="userSpaceOnUse">
<stop stop-color="#71EC94"/>
<stop offset="1" stop-color="#64D8B8"/>
</linearGradient>
<clipPath id="clip0_8491_1043">
<rect width="60" height="60" rx="30" fill="white"/>
</clipPath>
</defs>
</svg>
