<svg width="156" height="28" viewBox="0 0 156 28" fill="none" xmlns="http://www.w3.org/2000/svg">
<path d="M13.8312 2.91602L10.3163 10.1399L2.33203 11.3056L8.1159 16.999L6.73331 24.916L13.8312 21.1061L20.9306 24.916L19.5582 16.999L25.332 11.3056L17.392 10.1399L13.8312 2.91602Z" fill="#FFD700" stroke="#FFD700" stroke-width="2" stroke-linejoin="round"/>
<path d="M45.4992 3L41.9842 10.2239L34 11.3896L39.7839 17.083L38.4013 25L45.4992 21.1901L52.5986 25L51.2262 17.083L57 11.3896L49.06 10.2239L45.4992 3Z" fill="#595959" stroke="#595959" stroke-width="2" stroke-linejoin="round"/>
<path d="M77.8312 2.91602L74.3163 10.1399L66.332 11.3056L72.1159 16.999L70.7333 24.916L77.8312 21.1061L84.9306 24.916L83.5582 16.999L89.332 11.3056L81.392 10.1399L77.8312 2.91602Z" fill="#595959" stroke="#595959" stroke-width="2" stroke-linejoin="round"/>
<path d="M109.831 2.91602L106.316 10.1399L98.332 11.3056L104.116 16.999L102.733 24.916L109.831 21.1061L116.931 24.916L115.558 16.999L121.332 11.3056L113.392 10.1399L109.831 2.91602Z" fill="#595959" stroke="#595959" stroke-width="2" stroke-linejoin="round"/>
<path d="M141.831 2.91602L138.316 10.1399L130.332 11.3056L136.116 16.999L134.733 24.916L141.831 21.1061L148.931 24.916L147.558 16.999L153.332 11.3056L145.392 10.1399L141.831 2.91602Z" fill="#595959" stroke="#595959" stroke-width="2" stroke-linejoin="round"/>
</svg>
